<svg xmlns="http://www.w3.org/2000/svg" viewBox="0 0 128 128" role="img" aria-labelledby="title desc">
  <title id="title">Jesús Caballero favicon</title>
  <desc id="desc">Rounded square monogram with the letters J and C.</desc>
  <defs>
    <linearGradient id="bg" x1="12" y1="12" x2="116" y2="116" gradientUnits="userSpaceOnUse">
      <stop offset="0" stop-color="#61d3ff"/>
      <stop offset="1" stop-color="#8bf0d6"/>
    </linearGradient>
  </defs>
  <rect x="8" y="8" width="112" height="112" rx="28" fill="#08111f"/>
  <rect x="12" y="12" width="104" height="104" rx="24" fill="url(#bg)" opacity="0.18"/>
  <path d="M44 34h22v12H56v34c0 8 4 12 12 12h10v14H66c-18 0-30-11-30-29V46H26V34h18zm28 0h20c18 0 30 10 30 27 0 15-10 24-24 26l22 19H98L79 89h-7v17H58V34zm14 14H72v27h14c10 0 16-4 16-13s-6-14-16-14z" fill="#f7fbff"/>
</svg>
